# AST/ASF file generated using VICON BodyLanguage
# -----------------------------------------------
:version 1.10
:name VICON
:units
  mass 1.0
  length 0.45
  angle deg
:documentation
   .ast/.asf automatically generated from VICON data using
   VICON BodyBuilder and BodyLanguage model FoxedUp or BRILLIANT.MOD
:root
   order TX TY TZ RX RY RZ
   axis XYZ
   position 0 0 0  
   orientation 0 0 0 
:bonedata
  begin
     id 1 
     name lhipjoint
     direction 0.662698 -0.695252 0.27831 
     length 2.53073 
     axis 0 0 0  XYZ
  end
  begin
     id 2 
     name lfemur
     direction 0.34202 -0.939693 0  
     length 7.16147  
     axis 0 0 20  XYZ
    dof rx ry rz
    limits (-160.0 20.0)
           (-70.0 70.0)
           (-60.0 70.0)
  end
  begin
     id 3 
     name ltibia
     direction 0.34202 -0.939693 0   
     length 7.63967   
     axis 0 0 20   XYZ
    dof rx
    limits (-10.0 170.0)
  end
  begin
     id 4 
     name lfoot
     direction 0.0938457 -0.257721 0.961651   
     length 1.89793   
     axis -90 7.62852e-016 20   XYZ
    dof rx rz
    limits (-45.0 90.0)
           (-70.0 20.0)
  end
  begin
     id 5 
     name ltoes
     direction -0.00116841 -0.0030592 0.999995   
     length 0.955649   
     axis -90 7.62852e-016 20   XYZ
    dof rx
    limits (-90.0 20.0)
  end
  begin
     id 6 
     name rhipjoint
     direction -0.649445 -0.705948 0.282592   
     length 2.49238  
     axis 0 0 0  XYZ 
  end
  begin
     id 7 
     name rfemur
     direction -0.34202 -0.939693 0   
     length 6.90728   
     axis 0 0 -20   XYZ
    dof rx ry rz
    limits (-160.0 20.0)
           (-70.0 70.0)
           (-70.0 60.0)
  end
  begin
     id 8 
     name rtibia
     direction -0.34202 -0.939693 0   
     length 7.72868   
     axis 0 0 -20   XYZ
    dof rx
    limits (-10.0 170.0)
 end
 begin
     id 9 
     name rfoot
     direction -0.0920068 -0.252865 0.963117   
     length 1.97476  
     axis -90 -7.62852e-016 -20   XYZ
    dof rx rz
    limits (-45.0 90.0)
           (-20.0 70.0)
  end
  begin
     id 10 
     name rtoes
     direction 0.000391322 0.00230649 0.999997   
     length 0.992641   
     axis -90 -7.62852e-016 -20   XYZ
    dof rx
    limits (-90.0 20.0)
  end
  begin
     id 11 
     name lowerback
     direction -0.00875327 0.998321 -0.0572635   
     length 2.20024   
     axis 0 0 0   XYZ
    dof rx ry rz
    limits (-20.0 45.0)
           (-30.0 30.0)
           (-30.0 30.0)
  end
  begin
     id 12 
     name upperback
     direction 0.00753931 0.999972 -0.000360425   
     length 2.20538   
     axis 0 0 0   XYZ
    dof rx ry rz
    limits (-20.0 45.0)
           (-30.0 30.0)
           (-30.0 30.0)
  end
  begin
     id 13 
     name thorax
     direction 0.0117767 0.999601 0.0256663   
     length 2.21508   
     axis 0 0 0   XYZ
    dof rx ry rz
    limits (-20.0 45.0)
           (-30.0 30.0)
           (-30.0 30.0)
  end
  begin
     id 14 
     name lowerneck
     direction 0.060228 0.994909 0.0807986   
     length 1.7607   
     axis 0 0 0   XYZ
    dof rx ry rz
    limits (-20.0 45.0)
           (-30.0 30.0)
           (-30.0 30.0)
  end
  begin
     id 15 
     name upperneck
     direction -0.0563647 0.959594 -0.275685   
     length 1.75612   
     axis 0 0 0   XYZ
    dof rx ry rz
    limits (-20.0 45.0)
           (-30.0 30.0)
           (-30.0 30.0)
  end
  begin
     id 16
     name head
     direction -0.0161544 0.99458 -0.102714  
     length 1.79288  
     axis 0 0 0   XYZ
    dof rx ry rz
    limits (-20.0 45.0)
           (-30.0 30.0)
           (-30.0 30.0)
  end
  begin
     id 17 
     name lclavicle
     direction 0.93913 0.332189 -0.087669  
     length 3.52087  
     axis 0 0 0   XYZ
    dof ry rz
    limits (-20.0 10.0)
           (0.0 20.0)
  end
  begin
     id 18 
     name lhumerus
     direction 1 -4.48974e-011 -2.70836e-027   
     length 5.35289   
     axis -180 -30 -90   XYZ
    dof rx ry rz
    limits (-60.0 90.0)
           (-90.0 90.0)
           (-90.0 90.0)
  end
  begin
     id 19
     name lradius
     direction 1 -4.48961e-011 -9.76021e-027   
     length 3.27727   
     axis -180 -30 -90   XYZ
    dof rx
    limits (-10.0 170.0)
  end
  begin
     id 20
     name lwrist
     direction 1 -4.49103e-011 -2.23668e-026   
     length 1.63864   
     axis 1.44924e-014 90 90   XYZ
    dof ry
    limits (-180.0 0.0)
 end
  begin
     id 21 
     name lhand
     direction 1 3.0697e-005 0.000161777   
     length 0.54443   
     axis 2.85318e-014 90 90   XYZ
    dof rx rz
    limits (-90.0 90.0)
           (-45.0 45.0)
  end
  begin
     id 22 
     name lfingers
     direction 1 -4.49027e-011 -8.9447e-026   
     length 0.438912   
     axis 5.70628e-014 90 90   XYZ
    dof rx
    limits (0.0 90.0)
  end
  begin
     id 23
     name lthumb
     direction 0.707058 2.6516e-005 0.707156   
     length 0.630274   
     axis -90 45 -3.53137e-014   XYZ
    dof rx rz
    limits (-45.0 45.0)
           (-45.0 45.0)
  end
  begin
     id 24 
     name rclavicle
     direction -0.95274 0.284984 -0.105215   
     length 3.43401  
     axis 0 0 0   XYZ 
    dof ry rz
    limits (-10.0 20.0)
           (-20.0 0.0)
  end
  begin
     id 25 
     name rhumerus
     direction -0.999999 -0.000575019 -0.00106829  
     length 5.52077   
     axis -180 30 90   XYZ
    dof rx ry rz
    limits (-90.0 60.0)
           (-90.0 90.0)
           (-90.0 90.0)
  end
  begin
     id 26 
     name rradius
     direction -1 -4.4879e-011 -6.35415e-027   
     length 3.32364   
     axis -180 30 90   XYZ
    dof rx
    limits (-10.0 170.0)
  end
  begin
     id 27 
     name rwrist
     direction -1 -4.49048e-011 -9.98542e-027   
     length 1.66182   
     axis 6.32482e-015 -90 -90   XYZ
    dof ry
    limits (-180.0 0.0)
  end
  begin
     id 28
     name rhand
     direction -1 -4.48978e-011 -1.99771e-026   
     length 0.732235   
     axis 1.27479e-014 -90 -90   XYZ
    dof rx rz
    limits (-90.0 90.0)
           (-45.0 45.0)
  end
  begin
     id 29
     name rfingers
     direction -1 -4.49144e-011 -3.99245e-026   
     length 0.590347   
     axis 2.5496e-014 -90 -90   XYZ
    dof rx
    limits (0.0 90.0)
  end
  begin
     id 30
     name rthumb
     direction -0.707107 -6.35121e-011 0.707107   
     length 0.847624   
     axis -90 -45 -2.82974e-014   XYZ
    dof rx rz
    limits (-45.0 45.0)
           (-45.0 45.0)
  end
:hierarchy
  begin
    root lhipjoint rhipjoint lowerback
    lhipjoint lfemur
    lfemur ltibia
    ltibia lfoot
    lfoot ltoes
    rhipjoint rfemur
    rfemur rtibia
    rtibia rfoot
    rfoot rtoes
    lowerback upperback
    upperback thorax
    thorax lowerneck lclavicle rclavicle
    lowerneck upperneck
    upperneck head
    lclavicle lhumerus
    lhumerus lradius
    lradius lwrist
    lwrist lhand lthumb
    lhand lfingers
    rclavicle rhumerus
    rhumerus rradius
    rradius rwrist
    rwrist rhand rthumb
    rhand rfingers
  end

#!OML:ASF G:\Work\Work\Patient Classification 1\Elijah\terrain1\Elijah.ASF
:FULLY-SPECIFIED
:DEGREES
263
root 15.1151 20.2552 13.6485 8.7062 -1.49994 4.3106
lowerback 7.73936 -0.133722 -3.70627
upperback 0.750898 -0.497491 -0.0623595
thorax -3.53231 -0.193341 2.07185
lowerneck -10.3637 16.5429 13.6091
upperneck 33.9169 27.6459 -14.9876
head 19.1202 11.581 -2.9914
rclavicle 7.25564e-015 5.96354e-015
rhumerus -41.5614 -6.05116 -80.6238
rradius 44.0674
rwrist -18.9585
rhand -18.9806 19.8867
rfingers 7.12502
rthumb 7.32392 -9.96658
lclavicle 7.25564e-015 5.96354e-015
lhumerus -37.7858 11.6111 78.9418
lradius 45.7114
lwrist -3.04716
lhand -13.8737 23.7365
lfingers 7.12502
lthumb 12.2508 53.3577
rfemur -49.3634 -3.02949 19.8441
rtibia 55.6515
rfoot -16.1205 -6.43654
rtoes -5.37015
lfemur 9.30217 -1.0077 -26.993
ltibia 1.59028e-014
lfoot 5.23117 -8.4264
ltoes -17.4674
264
root 15.0821 20.2634 13.75 8.8796 -1.52791 4.35842
lowerback 7.05806 -0.0684567 -3.70368
upperback 1.00354 -0.373383 0.00157974
thorax -2.89682 -0.146853 2.1178
lowerneck -10.7165 16.6318 13.3689
upperneck 33.6513 27.7457 -14.9999
head 19.022 11.5779 -2.89479
rclavicle 7.65321e-015 1.98785e-014
rhumerus -41.1888 -6.45153 -80.4725
rradius 43.7962
rwrist -18.0671
rhand -18.7154 18.1315
rfingers 7.12502
rthumb 7.57987 -11.7127
lclavicle 7.65321e-015 1.98785e-014
lhumerus -37.5414 11.9841 79.1529
lradius 44.7201
lwrist -2.8911
lhand -14.406 23.5814
lfingers 7.12502
lthumb 11.7377 53.2325
rfemur -49.1354 -2.5441 19.7356
rtibia 55.7151
rfoot -16.4226 -6.63687
rtoes -5.12156
lfemur 9.39891 -0.891723 -26.9647
ltibia 9.54166e-015
lfoot 5.77232 -8.17532
ltoes -18.6517
265
root 15.0609 20.2788 13.8503 8.87487 -1.3036 4.41742
lowerback 6.9962 -0.0886397 -3.53346
upperback 0.938374 -0.382567 0.109071
thorax -2.92949 -0.151261 2.134
lowerneck -10.1824 16.6758 13.8029
upperneck 33.5686 27.9326 -15.3972
head 19.092 11.7113 -3.11598
rclavicle 1.98785e-015 -1.51076e-014
rhumerus -41.3095 -6.72569 -80.0959
rradius 43.3511
rwrist -16.8808
rhand -18.3678 17.2134
rfingers 7.12502
rthumb 7.91536 -12.6184
lclavicle 1.98785e-015 -1.51076e-014
lhumerus -37.7465 12.285 79.3686
lradius 43.6274
lwrist -2.78444
lhand -14.8205 23.4622
lfingers 7.12502
lthumb 11.3378 53.1357
rfemur -48.6482 -2.50434 19.6035
rtibia 55.7484
rfoot -16.8143 -6.63243
rtoes -4.39009
lfemur 9.68477 -1.00209 -26.9686
ltibia 3.18055e-015
lfoot 6.20202 -8.27177
ltoes -21.9337
266
root 15.0508 20.3037 13.9456 8.71453 -0.673463 4.4577
lowerback 7.22589 -0.219736 -2.947
upperback 1.07821 -0.517418 0.113143
thorax -2.90983 -0.226422 1.82236
lowerneck -10.2751 16.7182 14.1076
upperneck 33.6567 28.0894 -15.6705
head 19.3591 11.7696 -3.22255
rclavicle -9.93923e-017 -1.98785e-015
rhumerus -40.6678 -7.28716 -79.8634
rradius 42.0523
rwrist -16.0614
rhand -18.1628 17.5165
rfingers 7.12502
rthumb 8.11323 -12.3078
lclavicle -9.93923e-017 -1.98785e-015
lhumerus -37.5851 12.3392 79.6155
lradius 42.5618
lwrist -2.51479
lhand -14.9158 23.9316
lfingers 7.12502
lthumb 11.2459 53.6101
rfemur -47.8654 -3.07981 19.5301
rtibia 55.7104
rfoot -17.2813 -6.47543
rtoes -4.07841
lfemur 10.1662 -1.48768 -26.94
ltibia 1.59028e-014
lfoot 6.84458 -8.43871
ltoes -22.4566
267
root 15.0156 20.3239 14.0422 8.88627 -0.718536 4.35232
lowerback 6.99561 -0.222887 -3.04415
upperback 0.971075 -0.514991 0.368875
thorax -2.88888 -0.222253 2.13965
lowerneck -9.71086 16.5845 14.6186
upperneck 33.7303 28.0726 -16.1829
head 19.5317 11.8192 -3.58198
rclavicle -7.25564e-015 -2.38542e-014
rhumerus -40.3398 -7.03915 -79.7629
rradius 40.6142
rwrist -16.1386
rhand -18.2214 18.6581
rfingers 7.12502
rthumb 8.05665 -11.1683
lclavicle -7.25564e-015 -2.38542e-014
lhumerus -37.8703 12.7512 79.7477
lradius 41.4162
lwrist -2.29389
lhand -14.8428 24.1867
lfingers 7.12502
lthumb 11.3164 53.8614
rfemur -47.5662 -2.51637 19.5965
rtibia 55.5541
rfoot -17.4761 -6.81684
rtoes -4.24633
lfemur 10.211 -1.332 -26.7055
ltibia -2.22639e-014
lfoot 8.73902 -7.32477
ltoes -15.1881
268
root 14.9908 20.3484 14.1485 8.86756 -0.530296 4.24316
lowerback 6.80671 -0.244793 -2.7943
upperback 1.1027 -0.512407 0.549654
thorax -2.64802 -0.228151 2.18309
lowerneck -9.99214 16.5501 14.1176
upperneck 33.651 27.9406 -15.8965
head 19.3202 11.7224 -3.397
rclavicle -7.35503e-015 3.97569e-015
rhumerus -39.7435 -7.42248 -79.4465
rradius 39.3693
rwrist -15.138
rhand -18.1446 18.7479
rfingers 7.12502
rthumb 8.13078 -11.0757
lclavicle -7.35503e-015 3.97569e-015
lhumerus -37.6342 13.0773 79.9923
lradius 40.131
lwrist -2.41296
lhand -14.674 24.2288
lfingers 7.12502
lthumb 11.4791 53.8945
rfemur -46.8943 -2.47256 19.7294
rtibia 55.3148
rfoot -17.8099 -6.93255
rtoes -4.36748
lfemur 10.5189 -1.38168 -26.508
ltibia 1.59028e-014
lfoot 8.98903 -7.8474
ltoes -14.8354
269
root 14.9659 20.3844 14.2628 8.7282 -0.267062 3.97589
lowerback 6.77506 -0.295376 -2.36532
upperback 1.22603 -0.539275 0.806715
thorax -2.50303 -0.247818 2.20851
lowerneck -10.0965 16.5607 13.6445
upperneck 33.3422 27.9099 -15.7849
head 19.0112 11.6787 -3.27326
rclavicle 1.19271e-014 8.74653e-015
rhumerus -39.1382 -8.13831 -78.943
rradius 37.9608
rwrist -13.8544
rhand -18.0211 19.1066
rfingers 7.12502
rthumb 8.24999 -10.7123
lclavicle 1.19271e-014 8.74653e-015
lhumerus -37.6094 13.3583 80.299
lradius 39.1564
lwrist -2.50735
lhand -14.3489 24.9468
lfingers 7.12502
lthumb 11.7927 54.5948
rfemur -45.9629 -2.60206 20.0916
rtibia 54.9728
rfoot -18.3064 -6.95385
rtoes -4.24896
lfemur 10.9603 -1.46941 -26.1254
ltibia 2.22639e-014
lfoot 10.4909 -7.49661
ltoes -14.0476
270
root 14.9409 20.4203 14.3659 8.77688 -0.135556 3.76873
lowerback 6.82267 -0.360465 -2.12686
upperback 1.12209 -0.601593 1.10333
thorax -2.63275 -0.276968 2.3877
lowerneck -9.84207 16.61 13.6948
upperneck 33.2367 28.0884 -16.0299
head 19.0111 11.7605 -3.35479
rclavicle -1.76918e-014 1.35174e-014
rhumerus -38.9141 -8.36396 -78.5115
rradius 36.9666
rwrist -12.778
rhand -17.8439 19.281
rfingers 7.12502
rthumb 8.42098 -10.5311
lclavicle -1.76918e-014 1.35174e-014
lhumerus -37.7548 13.7078 80.5307
lradius 37.9468
lwrist -2.51182
lhand -14.1125 25.1786
lfingers 7.12502
lthumb 12.0207 54.8134
rfemur -45.3337 -2.63279 20.4053
rtibia 54.6097
rfoot -18.5985 -6.92834
rtoes -3.77762
lfemur 11.1002 -1.45603 -25.8
ltibia 1.27222e-014
lfoot 12.0623 -6.80464
ltoes -15.4532
271
root 14.9224 20.4538 14.4682 8.93574 0.0186801 3.83406
lowerback 6.71667 -0.392125 -2.04331
upperback 0.934769 -0.631244 1.27096
thorax -2.76435 -0.288094 2.51695
lowerneck -9.60015 16.5659 13.8757
upperneck 33.6152 28.0976 -15.9815
head 19.2111 11.7966 -3.38934
rclavicle 2.0276e-014 3.97569e-015
rhumerus -38.9626 -8.46756 -78.1247
rradius 36.2961
rwrist -11.8137
rhand -17.6142 19.4878
rfingers 7.12502
rthumb 8.64261 -10.3153
lclavicle 2.0276e-014 3.97569e-015
lhumerus -37.8806 13.8299 80.6972
lradius 36.4708
lwrist -2.71335
lhand -13.9182 24.7426
lfingers 7.12502
lthumb 12.2079 54.3663
rfemur -44.855 -2.89976 20.4418
rtibia 54.2614
rfoot -18.6971 -6.78359
rtoes -3.19257
lfemur 11.0621 -1.51348 -25.7943
ltibia 1.59028e-014
lfoot 13.2642 -6.24393
ltoes -16.5142
